# xmcd
#
# Track frame offsets:
#	150
#	14858
#	32957
#	55970
#	68666
#	89177
#	105943
#	129590
#	152950
#	176170
#
# Disc length: 2744 seconds
#
# Revision: 1
# Processed by: cddbd v1.4PL0 Copyright (c) Steve Scherf et al.
# Submitted via: CDmax 1.8
#
DISCID=8f0ab60a
DTITLE=Jonathan Blues Band - Überdruck
DYEAR=1987
DGENRE=Blues
TTITLE0=Grüne Kuh
TTITLE1=Die Geschichte vom kleinen Peter und dem Rock'n' Roll
TTITLE2=Wer bin ich
TTITLE3=Der Mann am Schalter
TTITLE4=Body Building Fee
TTITLE5=Guitar Stomp
TTITLE6=Hautnah bei mir
TTITLE7=Gib dir ein Leben
TTITLE8=Blues in der Nacht
TTITLE9=Daddy's Boogie
EXTD=
EXTT0=
EXTT1=
EXTT2=
EXTT3=
EXTT4=
EXTT5=
EXTT6=
EXTT7=
EXTT8=
EXTT9=
PLAYORDER=
